<?xml version="1.0" encoding="UTF-8"?>
<svg id="Layer_1" data-name="Layer 1" xmlns="http://www.w3.org/2000/svg" viewBox="0 0 29.92 29.63">
  <defs>
    <style>
      .cls-1 {
        fill: #ed1c24;
        stroke-width: 0px;
      }
    </style>
  </defs>
  <path class="cls-1" d="M29.4,12.19c.7-1.95.49-2.85.49-2.85,0-5.16-4.18-9.34-9.34-9.34-2.11,0-4.04.73-5.61,1.91-1.57-1.18-3.49-1.91-5.61-1.91C4.18,0,0,4.18,0,9.34c0,.05.01.1.02.15-.02.22-.03.72.15,1.54.25,1.34.77,2.58,1.52,3.65,1.82,3.27,5.55,8.14,13.27,14.95,8.36-7.37,12.06-12.49,13.7-15.74.3-.54.55-1.1.74-1.7Z"/>
</svg>